<svg width="98" height="18" viewBox="0 0 98 18" fill="none" xmlns="http://www.w3.org/2000/svg">
<path fill-rule="evenodd" clip-rule="evenodd" d="M34.5411 0.884891C35.0131 0.884891 35.4041 1.2623 35.4041 1.73406V4.80722H39.261C39.733 4.80722 40.1241 5.19811 40.1241 5.66986V6.93687H35.4176V13.8111C35.4176 14.8489 35.7682 15.4555 37.5618 15.4555C38.371 15.4555 39.0318 15.3207 39.9488 15.132L40.4477 15.0376V17.2077L40.205 17.2481C38.8699 17.4503 37.9394 17.5851 37.1707 17.5851C33.1376 17.5851 33.0207 15.1323 33.0173 14.0893L33.0172 6.95035H30.4954V4.8207H33.0037V0.884891H34.5411ZM2.14863 0.170515C2.62063 0.170515 3.01171 0.5614 3.01171 1.03316V6.14162C4.31982 5.18463 5.65489 4.42981 8.02836 4.42981C13.6114 4.42981 15.0948 8.60824 15.1083 11.1018C15.1083 13.6897 13.2877 17.5582 8.25761 17.5582C5.60095 17.5582 4.30633 16.7629 2.86337 15.6037L2.66109 16.372C2.58017 16.7629 2.43183 17.1942 1.79801 17.1942H0.382019L0.611274 14.6737V0.170515H2.14863ZM76.8049 4.41634C80.918 4.41634 83.8984 7.08514 83.8984 10.7648C83.8984 14.9433 81.1878 17.5447 76.8049 17.5447C72.4086 17.5447 69.6845 14.9433 69.6845 10.7648C69.6845 7.08514 72.6783 4.41634 76.8049 4.41634ZM47.73 4.40286C52.0993 4.40286 53.5288 6.42468 54.0008 7.08514L54.1491 7.28732L52.4904 8.79694L52.3016 8.55433C51.2497 7.20645 49.7124 6.53251 47.703 6.53251C46.5432 6.53251 44.5878 6.74817 44.5878 8.17692C44.5878 9.2687 46.3275 9.47088 48.3368 9.7135C51.1958 10.0505 54.4458 10.4414 54.4593 13.5415C54.4593 16.0755 52.2746 17.5312 48.4717 17.5312C45.5453 17.5312 43.3876 16.6012 41.6884 14.6198L41.5131 14.4041L43.2932 12.7732L43.482 13.0158C44.7362 14.6063 46.4623 15.4016 48.62 15.4016C50.1978 15.4016 52.0454 14.9568 52.0454 13.6763C52.0454 12.4093 50.1978 12.1801 48.0671 11.924C45.3161 11.5871 42.2009 11.2096 42.2009 8.28475C42.2009 5.42725 45.0598 4.40286 47.73 4.40286ZM61.8089 4.40286C66.1783 4.40286 67.6078 6.42468 68.0798 7.08514L68.2281 7.28732L66.5694 8.79694L66.3806 8.55433C65.3287 7.20645 63.7913 6.53251 61.782 6.53251C60.6222 6.53251 58.6668 6.74817 58.6668 8.17692C58.6668 9.2687 60.4064 9.47088 62.4158 9.7135C65.2747 10.0505 68.5113 10.4414 68.5383 13.5415C68.5383 16.0755 66.3536 17.5312 62.5507 17.5312C59.6243 17.5312 57.4666 16.6012 55.7674 14.6198L55.5921 14.4041L57.3722 12.7732L57.561 13.0158C58.8151 14.6063 60.5413 15.4016 62.699 15.4016C64.2768 15.4016 66.1243 14.9568 66.1243 13.6763C66.1243 12.4093 64.2768 12.1801 62.1461 11.924C59.395 11.5871 56.2798 11.2096 56.2798 8.28475C56.2798 5.42725 59.1388 4.40286 61.8089 4.40286ZM23.0109 4.38938C25.3034 4.38938 27.2723 5.10375 28.5534 6.4112C29.6718 7.54197 30.2509 9.06128 30.2909 10.9329L30.2931 11.1423L30.2796 11.614H18.6955C18.9922 13.5145 20.543 15.3881 23.4154 15.3881C26.1858 15.3881 27.1882 14.2143 27.8996 13.3304L27.9466 13.2719L28.1758 12.9754L30.1043 14.3637L29.6593 14.8354C28.486 16.089 27.1509 17.5177 23.2401 17.5177C19.1944 17.5177 16.2546 14.7411 16.2546 10.8996C16.2546 7.12557 19.1 4.38938 23.0109 4.38938ZM92.691 4.41634C94.6194 4.41634 97.856 5.02288 97.8694 9.09348V17.1808H95.469V9.44393C95.4825 8.50041 95.2532 7.78604 94.7812 7.3008C94.2823 6.7886 93.5136 6.53251 92.4752 6.53251C90.4389 6.53251 88.8071 7.89387 87.998 8.74303V17.1673H85.5976V4.76678H87.1349C87.6069 4.76678 87.998 5.15767 87.998 5.62943V6.18206C89.5084 4.99592 91.0457 4.41634 92.691 4.41634ZM7.90699 6.55946C5.45261 6.55946 3.99616 7.70516 2.99823 8.72955C2.97126 9.17435 2.97126 12.6654 2.99823 13.0697C4.11753 14.2559 6.04597 15.4285 7.86653 15.4285C11.0356 15.4285 12.6944 13.2719 12.6944 11.1423C12.6944 7.75908 10.2265 6.55946 7.90699 6.55946ZM76.8049 6.54599C73.5684 6.54599 72.085 8.85086 72.085 10.994C72.085 13.6763 73.9325 15.415 76.8049 15.415C79.7043 15.415 81.4979 13.7167 81.4979 10.994C81.4979 8.76999 80.0415 6.54599 76.8049 6.54599ZM23.1727 6.51903C20.9742 6.51903 19.4825 7.49522 18.8608 9.34728L18.8168 9.48436H27.6499C27.3937 8.59476 26.4497 6.51903 23.1727 6.51903Z" fill="white"/>
</svg>
