<?xml version="1.0" encoding="UTF-8" standalone="no"?>
<svg width="55px" height="61px" viewBox="0 0 55 61" version="1.1" xmlns="http://www.w3.org/2000/svg" xmlns:xlink="http://www.w3.org/1999/xlink">
    <!-- Generator: Sketch 41.2 (35397) - http://www.bohemiancoding.com/sketch -->
    <title>thumbsup</title>
    <desc>Created with Sketch.</desc>
    <defs></defs>
    <g id="Brand-UI-Refresh" stroke="none" stroke-width="1" fill="none" fill-rule="evenodd">
        <g id="Homepage---Logged-In---Header" transform="translate(-958.000000, -1007.000000)">
            <g id="Group-5" transform="translate(935.000000, 987.000000)">
                <g id="thumbsup" transform="translate(50.500000, 50.416667) scale(-1, 1) translate(-50.500000, -50.416667) translate(23.000000, 20.000000)">
                    <path d="M54.17667,18.5736297 L54.17667,41.8387587 C54.17667,44.3161479 52.8549934,46.609468 50.7065146,47.8496714 L30.5584904,59.4822359 C29.7980737,59.9197772 28.9773065,60.2034247 28.1354167,60.3301608 C27.1818783,60.4780196 26.2011822,60.4206866 25.2627315,60.1672144 C24.6954365,60.0133205 24.1432292,59.7839885 23.6181796,59.4822359 L3.47015542,47.8496714 C1.32167659,46.609468 0,44.3161479 0,41.8387587 L0,18.5736297 C0,16.093223 1.32167659,13.8029204 3.47015542,12.562717 L23.6181796,0.93015253 C25.7666584,-0.310050843 28.4100116,-0.310050843 30.5584904,0.93015253 L50.7065146,12.562717 C52.8549934,13.8029204 54.17667,16.093223 54.17667,18.5736297" id="Fill-27" fill="#E0E0E0"></path>
                    <path d="M27.0702298,60.4923528 C26.4567667,60.4923528 25.8420966,60.4078621 25.2446263,60.2479332 L10.2595899,45.2628968 L10.2595899,27.0792824 L16.255415,27.0792824 L16.255415,27.2724041 L18.8716104,27.2724041 L18.8716104,27.483631 C19.0737847,27.4866485 19.2488013,27.4866485 19.3363095,27.4866485 L19.3483796,27.4866485 C19.8553241,27.4866485 20.9778439,27.1728257 21.3158069,26.7956349 C21.9464699,26.0985863 22.9422536,24.9670139 23.6121445,23.9953704 C25.2959243,21.5602265 26.979704,19.390625 26.979704,19.390625 C28.286293,17.9271247 29.0165344,16.0653108 29.1161128,14.1190063 C29.1281829,13.9138145 29.1342179,13.7056052 29.1281829,13.4973958 C29.0949901,11.2885665 29.6441799,9.98197751 30.4045966,9.40562996 C30.7184193,9.16634011 31.0684524,9.05257937 31.4305556,9.05257937 C32.0732887,9.05257937 32.7461971,9.41588955 33.2953869,10.0755208 L54.1585648,30.9417163 L54.1585648,41.9194775 C54.1585648,44.3968667 52.8368882,46.6901868 50.6884094,47.9303902 L30.5403853,59.5629547 C29.7799686,60.000496 28.9592014,60.2841435 28.1173115,60.4108796 C27.770296,60.4651951 27.4202629,60.4923528 27.0702298,60.4923528" id="Fill-28" fill="#C2C2C2"></path>
                    <path d="M43.4973421,33.1417525 C43.2921503,34.2401321 42.7369254,34.8345848 42.2571387,35.1514251 C42.1485078,35.2208282 42.0459119,35.2781612 41.9523686,35.3234241 C41.9825438,35.3867922 42.0127191,35.4531777 42.0489294,35.5286159 C42.3205068,36.1411738 42.6463996,37.0796245 42.4804357,37.7947783 C42.3235243,38.4737217 41.7743345,39.1043848 41.3609334,39.4996807 C41.2885127,39.5721014 41.2191096,39.6354694 41.1557416,39.6897849 C41.1859168,39.7471179 41.2191096,39.8104859 41.2523024,39.8829066 C41.4967221,40.3928686 41.7562293,41.1955306 41.4544767,41.8624039 C41.3880911,42.0012102 41.3337756,42.1339813 41.2824777,42.2546824 C40.6005167,43.9143219 40.2263434,44.1919344 31.1556589,44.1919344 L30.3348917,44.1919344 C28.2799562,44.1919344 23.1555928,43.7966384 22.2482226,43.6186043 C21.8028356,43.5341136 17.5016534,43.1780455 17.5016534,43.1780455 L17.5641162,27.4772518 C17.5641162,27.4772518 18.9808449,27.4878132 19.2868221,27.4878132 L19.3010045,27.4878132 C19.8073454,27.4878132 20.9283565,27.1724816 21.2672247,26.7967996 C21.8972842,26.098544 22.8927662,24.9669716 23.5629588,23.9968368 C25.2461351,21.5610895 26.9326306,19.3908844 26.9326306,19.3908844 C28.2377108,17.9273841 28.9679522,16.0649668 29.0675306,14.1204727 C29.0796007,13.9140739 29.0856357,13.7070716 29.0796007,13.499164 C29.0464079,11.2906364 29.5955977,9.98253869 30.3560144,9.40498413 C31.2310971,8.73811078 32.3898272,9.04861425 33.2468047,10.0754785 C35.4948619,12.7719401 35.4013186,16.1307488 34.9517072,18.4192409 C34.7133226,19.6464689 34.251641,20.8169674 33.6270131,21.9008629 C33.5364873,22.0619988 33.1381738,23.2566376 33.792977,23.4425172 C34.5202009,23.6471055 36.0561219,23.7970766 38.5063533,23.8960514 C41.771317,24.0279173 43.8141824,26.038797 43.82927,27.5647601 C43.8413401,28.6386978 43.2800802,29.3686374 42.8063285,29.8291119 C42.7278729,29.9054554 42.6524347,29.9727462 42.5830316,30.0337002 C42.68261,30.0895245 42.7882234,30.1583241 42.8938368,30.2485481 C43.3645709,30.6492756 43.8141824,31.4459026 43.4973421,33.1417525" id="Fill-29" fill="#FFFFFF"></path>
                    <polygon id="Fill-30" fill="#FFFFFF" points="13.2771164 43.3687955 18.8999752 43.3687955 18.8999752 27.1577381 13.2771164 27.1577381"></polygon>
                    <polyline id="Fill-31" fill="#DA5700" points="10.2595899 26.8559854 10.2595899 45.0380911 16.2539062 45.0380911 16.2539062 26.856589 10.2595899 26.8559854"></polyline>
                    <polyline id="Fill-32" fill="#FF6600" points="10.2595899 26.8559854 10.2595899 35.9462839 16.2539062 35.9462839 16.2539062 26.8562872 10.2595899 26.8559854"></polyline>
                    <path d="M15.4799621,43.4886153 C15.5744107,43.9231391 15.2971,44.3546454 14.8607657,44.4481887 C14.4241296,44.5447496 13.9935286,44.2671371 13.89908,43.8295958 C13.8046314,43.3920544 14.0819421,42.9635657 14.5182764,42.8670048 C14.9549125,42.7734615 15.3852118,43.051074 15.4799621,43.4886153" id="Fill-33" fill="#E6E6E6"></path>
                    <path d="M13.065743,43.184893 C13.1604934,43.6224343 12.8831827,44.0509231 12.4465466,44.1474839 C12.0102123,44.2410272 11.5796113,43.9634148 11.4851627,43.5258735 C11.3904124,43.0913496 11.667723,42.6598434 12.1043591,42.5663 C12.5406934,42.4697392 12.9712945,42.7473516 13.065743,43.184893" id="Fill-34" fill="#E6E6E6"></path>
                    <path d="M43.005787,30.1897487 L37.417328,29.7980737 L37.4625909,29.2700066 L42.9182788,29.7706143 C42.8398231,29.8466559 42.7674024,29.9139468 42.6949818,29.9752025 C42.7945602,30.0304233 42.9001736,30.0998264 43.005787,30.1897487" id="Fill-35" fill="#CA996E"></path>
                    <path d="M42.037161,35.187376 C42.0673363,35.250744 42.1005291,35.3201472 42.1337219,35.3925678 L37.7190807,35.2326389 L37.749256,34.7015542 L42.3419312,35.015377 C42.2333003,35.0847801 42.1307044,35.1421131 42.037161,35.187376" id="Fill-36" fill="#CA996E"></path>
                    <path d="M41.0806052,39.4933862 C41.1107804,39.5507192 41.1439732,39.6140873 41.177166,39.6865079 L37.7190807,39.7589286 L37.7190807,39.2278439 L41.285797,39.3062996 C41.2133763,39.3757027 41.1439732,39.4390708 41.0806052,39.4933862" id="Fill-37" fill="#CA996E"></path>
                    <path d="M29.7588459,13.8335483 C29.6321098,13.9907614 29.318287,14.0538277 28.968254,14.0698206 C28.9803241,13.8634218 28.9863591,13.6564195 28.9803241,13.4485119 C28.9471313,11.2399843 29.4963211,9.93188657 30.2567378,9.35433201 L30.2567378,9.35584077 C30.8481729,10.4747396 30.1118965,13.3975157 29.7588459,13.8335483" id="Fill-38" fill="#FBF1E8"></path>
                </g>
            </g>
        </g>
    </g>
</svg>