<?xml version="1.0" encoding="UTF-8"?>
<svg width="154px" height="27px" viewBox="0 0 154 27" version="1.1" xmlns="http://www.w3.org/2000/svg" xmlns:xlink="http://www.w3.org/1999/xlink">
    <!-- Generator: Sketch 48.2 (47327) - http://www.bohemiancoding.com/sketch -->
    <title>Logo</title>
    <desc>Created with Sketch.</desc>
    <defs></defs>
    <g id="Menu-Casino-hover" stroke="none" stroke-width="1" fill="none" fill-rule="evenodd" transform="translate(-50.000000, -13.000000)">
        <g id="Menu-White" transform="translate(0.000000, -2.000000)" fill="#FF6600">
            <path d="M125.778907,30.0947229 C122.47817,29.7023106 119.626781,29.3632018 119.626781,27.4446248 C119.626781,25.6228358 121.463615,24.6198875 124.79675,24.6198875 C128.051003,24.6198875 130.567141,25.72278 132.276496,27.8994584 L132.419118,28.0811113 L134.707413,26.0092866 L134.594724,25.8546361 C133.866822,24.8331017 131.64931,21.7229099 124.833022,21.7229099 C120.701554,21.7229099 116.287307,23.2729209 116.287307,27.6227709 C116.287307,32.039601 121.122026,32.6241866 125.385903,33.138636 C128.885607,33.5622589 131.90603,33.9287208 131.90603,36.1338044 C131.90603,38.3255621 128.850392,39.1019703 126.233185,39.1019703 C122.743342,39.1019703 119.937029,37.8058525 117.891367,35.2493863 L117.74628,35.0687855 L115.268879,37.3313808 L115.403753,37.489538 C118.052654,40.5657138 121.413609,42 125.982804,42 C131.869758,42 135.245504,39.7833439 135.245504,35.9195381 C135.245504,31.2197083 130.215692,30.6217968 125.778907,30.0947229 L125.778907,30.0947229 Z M147.819857,30.0947229 C144.516655,29.7023106 141.666675,29.3632018 141.666675,27.4446248 C141.666675,25.6228358 143.503509,24.6198875 146.837701,24.6198875 C150.092305,24.6198875 152.60457,25.72278 154.312516,27.8994584 L154.455138,28.0811113 L156.744842,26.0092866 L156.633561,25.8546361 C155.903899,24.8331017 153.685682,21.7229099 146.873972,21.7229099 C142.742505,21.7229099 138.332131,23.2729209 138.332131,27.6227709 C138.332131,32.039601 143.16192,32.6241866 147.427206,33.138636 C150.92691,33.5622589 153.943459,33.9287208 153.943459,36.1338044 C153.943459,38.3255621 150.891694,39.1019703 148.274136,39.1019703 C144.784644,39.1019703 141.977979,37.8058525 139.933726,35.2493863 L139.789696,35.0687855 L137.314759,37.3313808 L137.449986,37.489538 C140.093956,40.5657138 143.45456,42 148.024107,42 C153.905778,42 157.282933,39.7833439 157.282933,35.9195381 C157.282933,31.2197083 152.254177,30.6217968 147.819857,30.0947229 L147.819857,30.0947229 Z M108.852637,39.1019703 C105.833623,39.1019703 105.22651,38.0215214 105.22651,36.277233 L105.22651,25.1932513 L112.694987,25.1932513 L112.694987,23.4275713 C112.694987,22.8072162 112.194576,22.2973257 111.570208,22.2973257 L108.879049,22.2973257 L108.873767,22.2962737 L105.22651,22.2962737 L105.22651,19.9014716 L105.22651,19.8990168 L105.22651,17.190355 C105.22651,16.5696492 104.71624,16.0713312 104.091871,16.0713312 L101.88598,16.0737859 L101.88598,17.1850947 L101.88598,22.2962737 L97.9010082,22.2962737 L97.9010082,25.1932513 L101.88598,25.1932513 L101.88598,36.5637396 C101.88598,38.0502773 101.88598,42 108.242003,42 C109.439326,42 110.909567,41.7857338 113.015447,41.4592495 L113.196806,41.4318964 L113.196806,38.4812645 L112.69393,38.5847155 C111.22228,38.8848986 110.157719,39.1019703 108.852637,39.1019703 L108.852637,39.1019703 Z M196.028648,21.7229099 C193.333615,21.7229099 190.816068,22.7311184 188.343949,24.77559 L188.343949,23.6267583 L188.34254,23.4138948 C188.34254,22.7921369 187.83227,22.294871 187.207901,22.294871 L185.00694,22.2962737 L185.003066,22.2962737 L185.003066,23.4075825 L185.003066,41.4266362 L188.343949,41.4266362 L188.343949,28.2480355 C189.661356,26.8652994 192.317652,24.6198875 195.668395,24.6198875 C197.373875,24.6198875 198.662406,25.0498227 199.500884,25.8995233 C200.295343,26.701882 200.685529,27.8956009 200.65947,29.4442092 L200.65947,41.4266362 L204,41.4266362 L204,28.8750536 C204,22.6525658 199.005404,21.7229099 196.028648,21.7229099 L196.028648,21.7229099 Z M170.569341,39.1019703 C165.87971,39.1019703 162.849427,36.2674139 162.849427,31.878989 C162.849427,28.3826971 165.265554,24.6198875 170.569341,24.6198875 C175.878059,24.6198875 178.252984,28.2645176 178.252984,31.878989 C178.252984,36.334394 175.308978,39.1019703 170.569341,39.1019703 L170.569341,39.1019703 Z M170.569341,21.7229099 C164.160495,21.7229099 159.508544,25.8434143 159.508544,31.5212941 C159.508544,37.9843492 163.746362,42 170.569341,42 C177.368373,42 181.592458,37.9843492 181.592458,31.5212941 C181.592458,25.8434143 176.956706,21.7229099 170.569341,21.7229099 L170.569341,21.7229099 Z M78.414581,29.7696414 C79.3305329,26.4080111 81.8093431,24.6198875 85.625281,24.6198875 C90.2360299,24.6198875 92.4482597,27.2328134 93.0300177,29.7696414 L78.414581,29.7696414 Z M85.3738432,21.7229099 C79.2991912,21.7229099 74.8888177,25.9493201 74.8888177,31.7716805 C74.8888177,37.697492 79.4495608,42 85.7340965,42 C91.8298777,42 93.9044154,39.7882535 95.7349106,37.8370631 L96.2557459,37.2850909 L96.0592442,37.1406102 L93.6304398,35.3752809 L93.3990748,35.6603847 C92.2302765,37.1146598 90.6276249,39.1019703 86.0221582,39.1019703 C81.1624366,39.1019703 78.6325642,35.8101256 78.2670286,32.6662684 L96.6822041,32.6662684 L96.6860778,32.4544569 C96.6871343,32.3538114 96.6885429,32.2528152 96.6885429,32.151819 C96.6885429,29.1103607 95.786325,26.653488 94.0023142,24.8429208 C92.0203929,22.8307119 88.9573597,21.7229099 85.3738432,21.7229099 L85.3738432,21.7229099 Z M61.6161433,39.1019703 C58.6295274,39.1019703 55.4939505,37.1816399 53.6796544,35.2581533 C53.5923203,35.1634694 53.6173232,28.242074 53.6796544,28.1786007 C55.3023789,26.5076046 57.67343,24.6198875 61.6876305,24.6198875 C65.4711703,24.6198875 69.5149517,26.5837024 69.5149517,32.0932552 C69.5149517,35.5769226 66.8023114,39.1019703 61.6161433,39.1019703 L61.6161433,39.1019703 Z M61.867581,21.7229099 C58.0625599,21.7229099 56.008095,22.9292533 53.6796544,24.6584625 L53.6796544,16.1312977 C53.6796544,15.5095398 53.1693837,15.001052 52.5450151,15.001052 L50.3401805,15 L50.3401805,37.7076617 L50,41.4266362 L51.4501691,41.4266362 C51.4801022,41.4294416 51.9967117,41.4294416 51.9967117,41.4294416 C52.7626461,41.4294416 52.9880245,41.0058187 53.1317032,40.3041056 L53.5409059,38.7305989 C56.0658482,40.7652514 58.0463608,42 62.2253692,42 C70.024166,42 72.8544256,36.0331589 72.8544256,32.0220669 C72.8544256,28.195784 70.5407755,21.7229099 61.867581,21.7229099 L61.867581,21.7229099 Z" id="Logo"></path>
        </g>
    </g>
</svg>