<?xml version="1.0" encoding="UTF-8"?>
<svg width="20px" height="24px" viewBox="0 0 20 24" version="1.1" xmlns="http://www.w3.org/2000/svg" xmlns:xlink="http://www.w3.org/1999/xlink">
    <!-- Generator: Sketch 48.2 (47327) - http://www.bohemiancoding.com/sketch -->
    <title>locked</title>
    <desc>Created with Sketch.</desc>
    <defs></defs>
    <g id="Page-1" stroke="none" stroke-width="1" fill="none" fill-rule="evenodd">
        <g id="locked" fill="#000000" fill-rule="nonzero">
            <path d="M1.16666667,23.3333333 L18.8333333,23.3333333 C19.4739583,23.3333333 20,22.8177083 20,22.1822917 L20,11.1458333 C20,10.5104167 19.4791667,10 18.8333333,10 L17.7083333,10 L17.7083333,8.390625 C17.7083333,6.22916667 16.8645833,3.828125 15.4895833,2.38020833 C14.1197917,0.932291667 12.15625,0 10.0052083,0 L10,0 L9.99479167,0 C7.84375,0 5.88020833,0.932291667 4.51041667,2.375 C3.13541667,3.82291667 2.29166667,6.22395833 2.29166667,8.38541667 L2.29166667,10 L1.30208333,10 L1.16666667,10 C0.520833333,10 0,10.515625 0,11.1458333 L0,22.1822917 C0,22.8177083 0.520833333,23.3333333 1.16666667,23.3333333 Z M5.05208333,8.390625 C5.05208333,6.96875 5.56770833,5.20833333 6.515625,4.20833333 L6.515625,4.19270833 C7.43229167,3.22395833 8.69791667,2.65625 9.99479167,2.65625 L10,2.65625 L10.0052083,2.65625 C11.3020833,2.65625 12.5677083,3.22395833 13.484375,4.19270833 L13.484375,4.203125 L13.4791667,4.20833333 C14.4322917,5.20833333 14.9427083,6.96875 14.9427083,8.390625 L14.9427083,10 L14.03125,10 L5.95833333,10 L5.05208333,10 L5.05208333,8.390625 Z" id="Shape"></path>
        </g>
    </g>
</svg>