<?xml version="1.0" encoding="UTF-8" standalone="no"?>
<svg width="24px" height="24px" viewBox="0 0 24 24" version="1.1" xmlns="http://www.w3.org/2000/svg" xmlns:xlink="http://www.w3.org/1999/xlink">
    <!-- Generator: Sketch 3.8.1 (29687) - http://www.bohemiancoding.com/sketch -->
    <title>icon_profile</title>
    <desc>Created with Sketch.</desc>
    <defs></defs>
    <g id="Sportsbook-(Mobile)" stroke="none" stroke-width="1" fill="none" fill-rule="evenodd">
        <g id="icon_profile" fill="#2D2D2D">
            <g transform="translate(2.900000, 2.000000)" id="Shape">
                <path d="M9.11976558,10.6532025 C12.4905463,10.6530391 13.7033321,7.68973847 14.0208956,5.25558817 C14.4120064,2.25686272 12.7970554,0 9.11976558,0 C5.44307129,0 3.82722701,2.25669932 4.21863554,5.25555549 C4.53649678,7.68967311 5.74891038,10.6534312 9.11976558,10.6532025 L9.11976558,10.6532025 Z"></path>
                <path d="M18.2379913,17.7094115 C18.2011432,16.7648364 18.0750781,15.8159802 17.8873389,14.8861109 C17.6598858,13.759673 17.3703864,12.1082678 16.2502791,11.3741829 C15.6024972,10.9497384 14.7636637,10.8104901 14.0220867,10.5545424 C13.6611616,10.4300325 13.3378289,10.3063724 13.0343719,10.1656208 C12.0101441,11.1517646 10.6746058,11.6676469 9.11931894,11.6677123 C7.56447871,11.6677123 6.22908929,11.1518299 5.20497312,10.1656208 C4.90151613,10.3064051 4.5781835,10.4300979 4.21725839,10.5545424 C3.47568141,10.8104901 2.63684782,10.9497057 1.98914041,11.3741829 C0.868958678,12.1082678 0.579496514,13.759673 0.352080566,14.8861109 C0.164304224,15.8159802 0.0382018945,16.7648364 0.0013910316,17.7094115 C-0.0271197075,18.4410128 0.384313334,18.5435619 1.08141207,18.7644442 C1.95433944,19.0408494 2.85555422,19.2460455 3.7627987,19.4142481 C5.5150181,19.7391174 7.3211697,19.9888233 9.11957948,19.9999997 C10.9179893,19.9887906 12.7241409,19.7391174 14.4763603,19.4142481 C15.3836047,19.2461109 16.284894,19.0409148 17.1577469,18.7644442 C17.8551062,18.5436272 18.266502,18.4410782 18.2379913,17.7094115 L18.2379913,17.7094115 Z"></path>
            </g>
        </g>
    </g>
</svg>