<svg width="25" height="24" viewBox="0 0 25 24" fill="none" xmlns="http://www.w3.org/2000/svg">
<path d="M3.75 3C3.06 3 2.5 3.56 2.5 4.25V13.235C2.5 13.925 3.06 14.485 3.75 14.485H8.232L10.404 9.824C9.944 9.68 9.61 9.25 9.61 8.743C9.61 8.117 10.117 7.61 10.743 7.61C10.969 7.61 11.18 7.676 11.357 7.79C11.68 7.209 12.431 6.761 13.087 6.773L13.595 6.782V4.25C13.595 3.56 13.035 3 12.345 3H3.751H3.75ZM9.6 5.617C9.6 4.991 10.107 4.484 10.733 4.484C11.359 4.484 11.866 4.991 11.866 5.617C11.866 6.243 11.359 6.75 10.733 6.75C10.107 6.75 9.6 6.243 9.6 5.617ZM4.1 5.617C4.1 4.991 4.607 4.484 5.233 4.484C5.859 4.484 6.366 4.991 6.366 5.617C6.366 6.243 5.859 6.75 5.233 6.75C4.607 6.75 4.1 6.243 4.1 5.617ZM4.1 8.742C4.1 8.116 4.607 7.609 5.233 7.609C5.859 7.609 6.366 8.116 6.366 8.742C6.366 9.368 5.859 9.875 5.233 9.875C4.607 9.875 4.1 9.368 4.1 8.742ZM4.1 11.945C4.1 11.319 4.607 10.812 5.233 10.812C5.859 10.812 6.366 11.319 6.366 11.945C6.366 12.571 5.859 13.078 5.233 13.078C4.607 13.078 4.1 12.571 4.1 11.945Z" fill="white"/>
<path d="M11.924 8.12398L8.29202 15.913C8.00002 16.538 8.27102 17.282 8.89602 17.574L17.039 21.371C17.664 21.663 18.408 21.392 18.7 20.766L22.332 12.977C22.624 12.352 22.353 11.608 21.728 11.316L13.584 7.51898C13.413 7.43898 13.234 7.40198 13.057 7.40198C12.586 7.40198 12.136 7.66898 11.923 8.12398H11.924ZM11.016 15.383C11.016 14.714 11.558 14.172 12.227 14.172C12.896 14.172 13.438 14.714 13.438 15.383C13.438 16.052 12.896 16.594 12.227 16.594C11.558 16.594 11.016 16.052 11.016 15.383ZM14.141 14.445C14.141 13.776 14.683 13.234 15.352 13.234C16.021 13.234 16.563 13.776 16.563 14.445C16.563 15.114 16.021 15.656 15.352 15.656C14.683 15.656 14.141 15.114 14.141 14.445ZM17.266 13.508C17.266 12.839 17.808 12.297 18.477 12.297C19.146 12.297 19.688 12.839 19.688 13.508C19.688 14.177 19.146 14.719 18.477 14.719C17.808 14.719 17.266 14.177 17.266 13.508Z" fill="white"/>
</svg>
