<?xml version="1.0" encoding="UTF-8"?>
<svg width="18px" height="20px" viewBox="0 0 18 20" version="1.1" xmlns="http://www.w3.org/2000/svg" xmlns:xlink="http://www.w3.org/1999/xlink">
    <!-- Generator: Sketch 51.2 (57519) - http://www.bohemiancoding.com/sketch -->
    <title>icon_livecasino</title>
    <desc>Created with Sketch.</desc>
    <defs></defs>
    <g id="Page-1" stroke="none" stroke-width="1" fill="none" fill-rule="evenodd">
        <g id="Homepage-Copy" transform="translate(-956.000000, -515.000000)" fill="#FFFFFF" fill-rule="nonzero">
            <g id="Card-Icon" transform="translate(947.000000, 507.000000)">
                <g id="icon_livecasino" transform="translate(9.000000, 8.000000)">
                    <path d="M9.09456165,11.1303826 C10.5072347,11.1303826 13.8292896,9.49450623 13.8292896,5.574418 C13.8292896,2.50621664 13.3989063,0.018735172 9.09456165,0.018735172 C4.79021695,0.018735172 4.3595409,2.50621664 4.3595409,5.57469973 C4.3595409,9.49450623 7.68159573,11.1303826 9.09456165,11.1303826 Z M5.06730498,4.64752002 C5.39988382,4.02848458 6.119361,3.31344899 7.66644191,3.3450734 C7.66644191,3.3450734 8.58870213,5.49715302 13.116035,4.53088301 C13.1343367,4.8745255 13.14012,5.22528173 13.14012,5.57469973 C13.14012,7.49068802 12.260759,8.67790629 11.5229801,9.33652506 C10.5932528,10.1663664 9.56125548,10.4673265 9.09456165,10.4673265 C8.62757499,10.4673265 7.59550445,10.1663664 6.66585033,9.33652506 C5.92807143,8.67790629 5.04871043,7.49068802 5.04871043,5.57469973 C5.04900326,5.26465377 5.05361529,4.9537626 5.06730498,4.64752002 Z" id="Fill-1"></path>
                    <path d="M17.8848041,16.82834 C17.6428554,15.3822101 17.1452682,13.51961 16.1473121,12.8576809 C15.4655365,12.4053603 13.0874843,11.1829256 12.0720317,10.6610172 L12.0545353,10.6519313 C11.9384292,10.5924859 11.7966274,10.6043187 11.6931129,10.6824993 C11.1611918,11.0844603 10.5783918,11.3552046 9.96133106,11.4874778 C9.8520332,11.5108615 9.76257439,11.58545 9.72311589,11.6858875 L9.09456165,13.279997 L8.46571458,11.6858875 C8.42625608,11.58545 8.33672407,11.5108615 8.22779223,11.4874778 C7.61036544,11.3552046 7.0275655,11.0844603 6.49571755,10.6824993 C6.39220302,10.6043187 6.2503281,10.5922746 6.13422199,10.6519313 C5.13106817,11.1677825 2.72380646,12.4152209 2.04466627,12.8557088 C0.895684351,13.6002558 0.393192353,16.2956554 0.304319206,16.82834 C0.295461174,16.8811647 0.300585655,16.9353277 0.319180202,16.9856873 C0.360029638,17.097394 1.4147211,19.7213041 9.09456165,19.7213041 C16.7741094,19.7213041 17.8287276,17.097394 17.8699431,16.9856873 C17.8885376,16.9353277 17.8936621,16.8811647 17.8848041,16.82834 Z M14.3456909,15.9459557 L12.8426805,16.3966563 L11.3393773,15.9459557 L11.3393773,15.1678826 L14.3456909,15.1678826 L14.3456909,15.9459557 Z" id="Fill-3"></path>
                </g>
            </g>
        </g>
    </g>
</svg>