<svg width="25" height="24" viewBox="0 0 25 24" fill="none" xmlns="http://www.w3.org/2000/svg">
<path d="M7.37599 17.473L6.43799 19.536L9.25099 21.693C10.658 22.162 12.064 22.349 13.471 22.256L15.065 20.38L11.97 17.754L7.37499 17.473H7.37599Z" fill="white"/>
<path d="M13.5661 13.159L12.2531 17.567L15.3481 20.099L19.4741 18.317L20.8811 14.003L18.2551 11.283L13.5661 13.159Z" fill="white"/>
<path d="M9.15802 9.78299L9.90802 5.28199L7.37602 4.06299L4.65602 6.21999L3.90602 6.78299L3.34302 10.815L5.78102 12.409L9.15702 9.78299H9.15802Z" fill="white"/>
<path d="M8.314 2.84399C6.907 3.49999 5.594 4.53199 4.563 5.84499C4.469 5.93899 4.469 6.03299 4.375 6.12599L7.47 3.68799L8.314 2.84399Z" fill="white"/>
<path d="M13.566 12.784L18.161 11.002L18.536 6.688L14.597 3.875L10.283 5.282L9.53296 9.69L13.565 12.785L13.566 12.784Z" fill="white"/>
<path d="M22.662 11.471L21.255 14.003L19.755 18.504L20.13 19.067C20.318 18.879 20.505 18.598 20.693 18.411C22.193 16.442 22.944 14.191 22.85 11.847L22.662 11.472V11.471Z" fill="white"/>
<path d="M18.7229 6.501L21.2549 6.782L21.1609 6.407C20.5979 5.563 19.8479 4.719 18.9099 4.063C17.5029 2.938 15.9089 2.281 14.3149 2L14.8779 3.688L18.7229 6.501Z" fill="white"/>
<path d="M22.756 11.284C22.662 9.78402 22.193 8.18902 21.349 6.78302V6.87702L22.756 11.285V11.284Z" fill="white"/>
<path d="M3.156 11.19L2.5 13.066C2.688 14.848 3.344 16.63 4.469 18.13L6.251 19.349L7.189 17.286L5.689 12.878L3.156 11.19Z" fill="white"/>
</svg>
