<svg width="21" height="17" viewBox="0 0 21 17" fill="none" xmlns="http://www.w3.org/2000/svg">
<path d="M11.9408 13.7761C11.9408 13.9489 11.8067 14.0888 11.6411 14.0888H9.37813C9.21253 14.0888 9.0784 13.9489 9.0784 13.7761V6.5854C9.0784 6.54923 9.06933 6.51557 9.0584 6.48303H11.9605C11.9496 6.51557 11.9408 6.54923 11.9408 6.5854V13.7761ZM5.3856 2.26162C5.6456 1.99568 5.96533 1.86243 6.34667 1.86243C6.57973 1.86243 6.77973 1.91278 6.94693 2.01515C7.11227 2.11557 7.232 2.21127 7.30613 2.30056L9.0784 4.6384H6.34667C5.96533 4.6384 5.6456 4.50209 5.3856 4.22948C5.1272 3.95686 4.99813 3.63083 4.99813 3.24972C4.99813 2.85693 5.1272 2.52784 5.3856 2.26162ZM13.6941 2.30056C13.7683 2.21127 13.888 2.11557 14.0533 2.01515C14.2203 1.91278 14.4267 1.86243 14.6725 1.86243C15.0411 1.86243 15.3595 1.99568 15.624 2.26162C15.8872 2.52784 16.0195 2.85693 16.0195 3.24972C16.0195 3.63083 15.8872 3.95686 15.624 4.22948C15.3595 4.50209 15.0411 4.6384 14.6725 4.6384H11.9408L13.6941 2.30056ZM20.2005 6.273H15.8075C16.2077 6.11499 16.5717 5.86991 16.8971 5.5322C17.5067 4.89795 17.8107 4.13712 17.8107 3.24972C17.8107 2.35091 17.5067 1.58341 16.8971 0.950825C16.2872 0.316571 15.5469 0 14.6725 0C14.192 0 13.7461 0.0973635 13.3333 0.29376C12.9221 0.490156 12.5803 0.765835 12.3093 1.12107L10.5008 3.49786L8.7096 1.12107C8.42613 0.765835 8.07787 0.490156 7.66693 0.29376C7.25413 0.0973635 6.8144 0 6.34667 0C5.47227 0 4.7288 0.316571 4.1128 0.950825C3.4968 1.58341 3.1896 2.35091 3.1896 3.24972C3.1896 4.13712 3.4968 4.89795 4.1128 5.5322C4.44133 5.86991 4.80773 6.11499 5.2096 6.273H0.799733C0.6344 6.273 0.5 6.41293 0.5 6.5854V10.4112C0.5 10.5837 0.6344 10.7239 0.799733 10.7239H1.93387C2.0992 10.7239 2.23333 10.8638 2.23333 11.0363V16.6706C2.23333 16.8434 2.36773 16.9833 2.53307 16.9833H18.4672C18.6325 16.9833 18.7667 16.8434 18.7667 16.6706V11.0363C18.7667 10.8638 18.9011 10.7239 19.0664 10.7239H20.2005C20.3659 10.7239 20.5 10.5837 20.5 10.4112V6.5854C20.5 6.41293 20.3659 6.273 20.2005 6.273Z" fill="white"/>
</svg>
