<svg width="21" height="19" viewBox="0 0 21 19" fill="none" xmlns="http://www.w3.org/2000/svg">
<path d="M10.5 17.773C6.08101 17.773 2.30701 16.242 0.789007 14.082C1.48801 16.72 5.56901 18.744 10.5 18.744C15.431 18.744 19.512 16.72 20.211 14.082C18.692 16.243 14.918 17.773 10.5 17.773ZM12.817 2.066H11.1C11.007 1.251 10.774 0.671997 10.5 0.671997C10.226 0.671997 9.99301 1.251 9.90001 2.066H8.18301C7.98101 2.066 7.81701 2.253 7.81701 2.484C7.81701 2.715 7.98101 2.902 8.18301 2.902H9.85701C9.86101 3.409 9.91601 3.873 10.005 4.237V9.438C9.48801 9.506 9.12101 9.678 9.12101 9.879C9.12101 10.14 9.73901 10.352 10.5 10.352C11.261 10.352 11.879 10.14 11.879 9.879C11.879 9.678 11.512 9.506 10.995 9.438V4.237C11.084 3.873 11.139 3.409 11.143 2.902H12.817C13.019 2.902 13.183 2.715 13.183 2.484C13.183 2.253 13.019 2.066 12.817 2.066ZM11.759 5.071V6.736C14.316 7.025 16.226 8.172 16.226 9.545C16.226 11.135 13.662 12.425 10.5 12.425C7.33801 12.425 4.77401 11.136 4.77401 9.545C4.77401 8.172 6.68501 7.024 9.24101 6.736V5.071C4.41401 5.415 0.682007 7.71 0.682007 10.492C0.682007 13.511 5.07801 15.959 10.5 15.959C15.922 15.959 20.318 13.511 20.318 10.492C20.318 7.711 16.586 5.416 11.759 5.071ZM19.103 11.052C19.018 11.594 18.564 11.954 18.091 11.857C17.618 11.76 17.302 11.242 17.387 10.7C17.472 10.158 17.926 9.798 18.399 9.895C18.872 9.992 19.188 10.51 19.103 11.052ZM17.892 12.298C17.882 12.313 17.867 12.335 17.848 12.364C17.81 12.418 17.756 12.491 17.683 12.576C17.538 12.746 17.321 12.963 17.039 13.176C16.757 13.389 16.411 13.597 16.028 13.769C15.645 13.94 15.225 14.077 14.802 14.171C14.591 14.219 14.378 14.255 14.169 14.285C14.059 14.301 13.962 14.308 13.859 14.319C13.755 14.326 13.653 14.333 13.552 14.34C13.351 14.348 13.158 14.349 12.975 14.342C12.792 14.335 12.62 14.322 12.461 14.302C12.303 14.285 12.158 14.26 12.031 14.236C11.904 14.212 11.794 14.186 11.704 14.163C11.524 14.116 11.424 14.078 11.424 14.078C11.424 14.078 11.527 14.103 11.71 14.126C11.801 14.138 11.912 14.149 12.04 14.156C12.168 14.163 12.311 14.169 12.468 14.165C12.625 14.164 12.794 14.154 12.972 14.138C13.15 14.122 13.337 14.096 13.529 14.063C13.624 14.044 13.721 14.025 13.818 14.005C13.916 13.981 14.022 13.958 14.116 13.933C14.314 13.88 14.514 13.821 14.711 13.752C15.104 13.614 15.484 13.439 15.819 13.24C16.154 13.041 16.445 12.818 16.671 12.604C16.897 12.39 17.06 12.188 17.159 12.043C17.209 11.971 17.243 11.913 17.263 11.876C17.272 11.859 17.279 11.846 17.283 11.837L17.284 11.834C17.285 11.831 17.286 11.829 17.286 11.829L17.909 12.267C17.909 12.267 17.903 12.277 17.891 12.296L17.892 12.298Z" fill="white"/>
</svg>
